Coordinates
version=1
nRows=8
nColumns=63
inDegrees=yes

Units are S.I. units (second, meters, Newtons, ...)
If the header above contains a line with 'inDegrees', this indicates whether rotational values are in degrees (yes) or radians (no).

endheader
time	pelvis_tilt	pelvis_list	pelvis_rotation	pelvis_tx	pelvis_ty	pelvis_tz	hip_flexion_r	hip_adduction_r	hip_rotation_r	knee_angle_r	knee_angle_r_beta	ankle_angle_r	subtalar_angle_r	mtp_angle_r	hip_flexion_l	hip_adduction_l	hip_rotation_l	knee_angle_l	knee_angle_l_beta	ankle_angle_l	subtalar_angle_l	mtp_angle_l	L5_S1_Flex_Ext	L5_S1_Lat_Bending	L5_S1_axial_rotation	L4_L5_Flex_Ext	L4_L5_Lat_Bending	L4_L5_axial_rotation	L3_L4_Flex_Ext	L3_L4_Lat_Bending	L3_L4_axial_rotation	L2_L3_Flex_Ext	L2_L3_Lat_Bending	L2_L3_axial_rotation	L1_L2_Flex_Ext	L1_L2_Lat_Bending	L1_L2_axial_rotation	L1_T12_Flex_Ext	L1_T12_Lat_Bending	L1_T12_axial_rotation	Abs_r3	Abs_r2	Abs_r1	Abs_t1	Abs_t2	neck_flexion	neck_bending	neck_rotation	arm_flex_r	arm_add_r	arm_rot_r	elbow_flex_r	pro_sup_r	wrist_flex_r	wrist_dev_r	arm_flex_l	arm_add_l	arm_rot_l	elbow_flex_l	pro_sup_l	wrist_flex_l	wrist_dev_l
0.000000	-0.918900	-3.689825	98.702596	0.209686	0.739821	0.650672	2.652245	-0.246281	-0.713214	5.172355	0.090275	16.011573	-12.818255	0.000000	4.461180	-0.908064	4.748737	8.466074	0.147761	23.351225	6.912031	0.000000	0.141862	0.229733	-1.020359	0.263451	0.305545	-1.084132	0.233064	0.558573	-1.084132	0.162134	0.558573	-0.892814	0.131733	0.468472	-0.829042	0.081060	0.355857	-0.765269	1.013303	2.598788	-5.674932	0.000000	0.000000	12.841598	-2.041438	5.268331	24.571575	-14.356322	81.404813	51.122011	88.211894	2.556036	-10.217137	22.190317	-13.866387	71.723338	47.023643	83.038289	20.272999	-14.500706
0.016667	-0.825733	-3.673589	98.616557	0.210157	0.739076	0.651123	2.655225	-0.154114	-0.799749	5.550034	0.096866	15.945458	-12.906486	0.000000	4.449184	-1.090701	3.827438	8.714139	0.152090	23.740295	7.810650	0.000000	0.135913	0.250123	-1.126904	0.252405	0.332663	-1.197336	0.223292	0.608148	-1.197336	0.155335	0.608148	-0.986041	0.126209	0.510050	-0.915610	0.077661	0.387440	-0.845178	0.970816	2.829436	-6.267503	0.000000	0.000000	13.079291	-2.501266	5.713913	24.768594	-14.369723	81.961052	51.355759	88.151443	0.583588	-10.355956	21.877975	-14.292878	71.678211	47.425606	79.709305	21.748019	-13.714597
0.033333	-0.784527	-3.652702	98.524428	0.210571	0.738456	0.651488	2.651881	-0.114181	-0.890350	5.869892	0.102449	15.928918	-12.928346	0.000000	4.427423	-1.206840	3.037659	8.914279	0.155584	24.053137	8.571372	0.000000	0.130662	0.261059	-1.209575	0.242653	0.347208	-1.285173	0.214665	0.634739	-1.285173	0.149334	0.634739	-1.058378	0.121333	0.532351	-0.982780	0.074660	0.404380	-0.907181	0.933307	2.953150	-6.727293	0.000000	0.000000	13.238930	-2.805699	6.042771	24.889366	-14.379812	82.309402	51.553612	88.112637	-0.878932	-10.419341	21.648610	-14.676371	71.733823	47.774691	76.861151	22.869266	-13.111960
0.050000	-0.789467	-3.627913	98.427814	0.210931	0.737951	0.651775	2.642859	-0.120531	-0.982758	6.135611	0.107087	15.953159	-12.895125	0.000000	4.397050	-1.263315	2.371268	9.069969	0.158301	24.295869	9.202839	0.000000	0.126085	0.263560	-1.270512	0.234152	0.350535	-1.349919	0.207145	0.640820	-1.349919	0.144102	0.640820	-1.111698	0.117082	0.537452	-1.032291	0.072045	0.408255	-0.952884	0.900612	2.981445	-7.066208	0.000000	0.000000	13.328326	-2.970802	6.264772	24.942047	-14.387029	82.472674	51.717767	88.093270	-1.882550	-10.417633	21.494373	-15.017988	71.876466	48.073638	74.459958	23.676835	-12.669416
0.066667	-0.834734	-3.599966	98.328323	0.211241	0.737552	0.651989	2.628805	-0.167218	-1.074713	6.350875	0.110844	16.009392	-12.818115	0.000000	4.359217	-1.266958	1.820131	9.184684	0.160303	24.474609	9.713692	0.000000	0.122158	0.258644	-1.311857	0.226859	0.343996	-1.393848	0.200693	0.628867	-1.393848	0.139614	0.628867	-1.147875	0.113436	0.527426	-1.065884	0.069801	0.400639	-0.983893	0.872561	2.925831	-7.296156	0.000000	0.000000	13.355290	-3.012641	6.389785	24.934794	-14.391808	82.473676	51.850424	88.091140	-2.478289	-10.361172	21.407410	-15.318846	72.092428	48.325186	72.471851	24.210823	-12.363591
0.083333	-0.914514	-3.569608	98.227561	0.211503	0.737252	0.652136	2.610367	-0.248292	-1.163954	6.519366	0.113784	16.088824	-12.708609	0.000000	4.315074	-1.224604	1.376116	9.261899	0.161651	24.595472	10.112574	0.000000	0.118857	0.247328	-1.335751	0.220730	0.328946	-1.419235	0.195271	0.601353	-1.419235	0.135842	0.601353	-1.168782	0.110371	0.504351	-1.085297	0.067915	0.383111	-1.001813	0.848987	2.797821	-7.429044	0.000000	0.000000	13.327634	-2.947280	6.427676	24.875762	-14.394587	82.335219	51.953778	88.104043	-2.717173	-10.260297	21.379870	-15.580066	72.367997	48.532075	70.862961	24.511324	-12.171108
0.100000	-1.022989	-3.537586	98.127133	0.211721	0.737042	0.652221	2.588189	-0.357806	-1.248221	6.644767	0.115973	16.182664	-12.577897	0.000000	4.265774	-1.143086	1.031089	9.305088	0.162404	24.664578	10.408126	0.000000	0.116160	0.230630	-1.344333	0.215722	0.306737	-1.428354	0.190840	0.560753	-1.428354	0.132760	0.560753	-1.176292	0.107867	0.470300	-1.092271	0.066374	0.357245	-1.008250	0.829723	2.608929	-7.476779	0.000000	0.000000	13.253169	-2.790784	6.388315	24.773108	-14.395803	82.080113	52.030027	88.129774	-2.650225	-10.125348	21.403901	-15.802769	72.689464	48.697047	69.599414	24.618433	-12.068591
0.116667	-1.154342	-3.504647	98.028646	0.211898	0.736912	0.652250	2.562919	-0.489809	-1.325252	6.730762	0.117474	16.282122	-12.437272	0.000000	4.212467	-1.029237	0.776918	9.317726	0.162625	24.688042	10.608989	0.000000	0.114043	0.209567	-1.339746	0.211790	0.278724	-1.423480	0.187362	0.509542	-1.423480	0.130340	0.509542	-1.172278	0.105901	0.427349	-1.088544	0.065164	0.324620	-1.004810	0.814601	2.370666	-7.451267	0.000000	0.000000	13.139708	-2.559220	6.281570	24.634987	-14.395893	81.731166	52.081370	88.166131	-2.328470	-9.966665	21.471650	-15.988073	73.043117	48.822841	68.647338	24.572247	-12.032665
